<svg xmlns="http://www.w3.org/2000/svg" xmlns:xlink="http://www.w3.org/1999/xlink">
<path d="M11.9,22.5C6.1,22.5,1.3,17.8,1.3,12S6.1,1.4,11.9,1.4S22.4,6.1,22.4,12S17.7,22.5,11.9,22.5z M11.9,2.6
	c-5.2,0-9.4,4.2-9.4,9.4s4.2,9.4,9.4,9.4s9.4-4.2,9.4-9.4S17,2.6,11.9,2.6z" fill="#8e8e8e"/>
<path d="M10.97,14.5c0.01-0.59,0.08-1.06,0.2-1.41c0.13-0.35,0.38-0.73,0.77-1.15l0.98-1.01c0.42-0.47,0.63-0.98,0.63-1.53
	c0-0.52-0.14-0.94-0.41-1.23c-0.28-0.3-0.68-0.45-1.2-0.45c-0.51,0-0.92,0.14-1.23,0.41c-0.31,0.27-0.47,0.63-0.47,1.09H8.85
	c0.01-0.81,0.3-1.47,0.87-1.96c0.57-0.5,1.31-0.75,2.22-0.75c0.95,0,1.68,0.25,2.21,0.76c0.53,0.51,0.79,1.2,0.79,2.09
	c0,0.87-0.41,1.74-1.22,2.59l-0.82,0.81c-0.37,0.4-0.55,0.99-0.55,1.75H10.97z" fill="#8e8e8e"/>
<path d="M10.77,16.73c0-0.27,0.08-0.49,0.24-0.67c0.16-0.18,0.4-0.27,0.72-0.27s0.56,0.09,0.72,0.27c0.16,0.18,0.25,0.41,0.25,0.67
	s-0.08,0.49-0.25,0.66c-0.16,0.18-0.41,0.26-0.72,0.26s-0.56-0.09-0.72-0.26C10.85,17.22,10.77,17,10.77,16.73z" fill="#8e8e8e"/>
</svg>
